<svg xmlns="http://www.w3.org/2000/svg" viewBox="0 0 64 64" fill="none">
  <!-- Cloud body -->
  <path d="M52 34a10 10 0 0 0-9.8-10A14 14 0 0 0 16 28a12 12 0 0 0 1 24h33a10 10 0 0 0 2-20z" fill="#6C9FFF" opacity="0.85"/>
  <!-- Cloud highlight -->
  <path d="M52 34a10 10 0 0 0-9.8-10A14 14 0 0 0 16 28a12 12 0 0 0 1 24h33a10 10 0 0 0 2-20z" fill="url(#cloudGrad)"/>
  <!-- Upload arrow -->
  <path d="M32 46V30" stroke="white" stroke-width="3.5" stroke-linecap="round"/>
  <path d="M25 36l7-7 7 7" stroke="white" stroke-width="3.5" stroke-linecap="round" stroke-linejoin="round"/>
  <defs>
    <linearGradient id="cloudGrad" x1="16" y1="20" x2="54" y2="52" gradientUnits="userSpaceOnUse">
      <stop offset="0%" stop-color="#A78BFA"/>
      <stop offset="100%" stop-color="#38BDF8"/>
    </linearGradient>
  </defs>
</svg>
